<mxfile host="app.diagrams.net" agent="Mozilla/5.0 (Windows NT 10.0; Win64; x64) AppleWebKit/537.36 (KHTML, like Gecko) Chrome/129.0.0.0 Safari/537.36" version="24.7.17">
  <diagram name="Page-1" id="9-FDwuM5ShxQ6mO_tYNR">
    <mxGraphModel dx="989" dy="514" grid="1" gridSize="10" guides="1" tooltips="1" connect="1" arrows="1" fold="1" page="1" pageScale="1" pageWidth="827" pageHeight="1169" math="0" shadow="0">
      <root>
        <mxCell id="0" />
        <mxCell id="1" parent="0" />
        <mxCell id="0lHxmzMRRfuqBZsRVAmi-1" value="StudentBase" style="swimlane;fontStyle=2;align=center;verticalAlign=top;childLayout=stackLayout;horizontal=1;startSize=26;horizontalStack=0;resizeParent=1;resizeLast=0;collapsible=1;marginBottom=0;rounded=0;shadow=0;strokeWidth=1;" vertex="1" parent="1">
          <mxGeometry x="210" y="20" width="260" height="190" as="geometry">
            <mxRectangle x="230" y="140" width="160" height="26" as="alternateBounds" />
          </mxGeometry>
        </mxCell>
        <mxCell id="0lHxmzMRRfuqBZsRVAmi-2" value="id: int&#xa;" style="text;align=left;verticalAlign=top;spacingLeft=4;spacingRight=4;overflow=hidden;rotatable=0;points=[[0,0.5],[1,0.5]];portConstraint=eastwest;" vertex="1" parent="0lHxmzMRRfuqBZsRVAmi-1">
          <mxGeometry y="26" width="260" height="26" as="geometry" />
        </mxCell>
        <mxCell id="0lHxmzMRRfuqBZsRVAmi-54" value="git:str" style="text;align=left;verticalAlign=top;spacingLeft=4;spacingRight=4;overflow=hidden;rotatable=0;points=[[0,0.5],[1,0.5]];portConstraint=eastwest;" vertex="1" parent="0lHxmzMRRfuqBZsRVAmi-1">
          <mxGeometry y="52" width="260" height="26" as="geometry" />
        </mxCell>
        <mxCell id="0lHxmzMRRfuqBZsRVAmi-4" value="" style="line;html=1;strokeWidth=1;align=left;verticalAlign=middle;spacingTop=-1;spacingLeft=3;spacingRight=3;rotatable=0;labelPosition=right;points=[];portConstraint=eastwest;" vertex="1" parent="0lHxmzMRRfuqBZsRVAmi-1">
          <mxGeometry y="78" width="260" height="8" as="geometry" />
        </mxCell>
        <mxCell id="0lHxmzMRRfuqBZsRVAmi-5" value="+initialize(id:int,git:str)" style="text;align=left;verticalAlign=top;spacingLeft=4;spacingRight=4;overflow=hidden;rotatable=0;points=[[0,0.5],[1,0.5]];portConstraint=eastwest;" vertex="1" parent="0lHxmzMRRfuqBZsRVAmi-1">
          <mxGeometry y="86" width="260" height="26" as="geometry" />
        </mxCell>
        <mxCell id="0lHxmzMRRfuqBZsRVAmi-6" value="+validate()" style="text;align=left;verticalAlign=top;spacingLeft=4;spacingRight=4;overflow=hidden;rotatable=0;points=[[0,0.5],[1,0.5]];portConstraint=eastwest;" vertex="1" parent="0lHxmzMRRfuqBZsRVAmi-1">
          <mxGeometry y="112" width="260" height="26" as="geometry" />
        </mxCell>
        <mxCell id="0lHxmzMRRfuqBZsRVAmi-55" value="-set_attribute(attr_name:symbol,value:any)" style="text;align=left;verticalAlign=top;spacingLeft=4;spacingRight=4;overflow=hidden;rotatable=0;points=[[0,0.5],[1,0.5]];portConstraint=eastwest;" vertex="1" parent="0lHxmzMRRfuqBZsRVAmi-1">
          <mxGeometry y="138" width="260" height="26" as="geometry" />
        </mxCell>
        <mxCell id="0lHxmzMRRfuqBZsRVAmi-56" value="+to_s" style="text;align=left;verticalAlign=top;spacingLeft=4;spacingRight=4;overflow=hidden;rotatable=0;points=[[0,0.5],[1,0.5]];portConstraint=eastwest;" vertex="1" parent="0lHxmzMRRfuqBZsRVAmi-1">
          <mxGeometry y="164" width="260" height="26" as="geometry" />
        </mxCell>
        <mxCell id="0lHxmzMRRfuqBZsRVAmi-9" value="Student" style="swimlane;fontStyle=0;align=center;verticalAlign=top;childLayout=stackLayout;horizontal=1;startSize=26;horizontalStack=0;resizeParent=1;resizeLast=0;collapsible=1;marginBottom=0;rounded=0;shadow=0;strokeWidth=1;" vertex="1" parent="1">
          <mxGeometry x="100" y="260" width="390" height="424" as="geometry">
            <mxRectangle x="130" y="380" width="160" height="26" as="alternateBounds" />
          </mxGeometry>
        </mxCell>
        <mxCell id="0lHxmzMRRfuqBZsRVAmi-10" value="first_name: string" style="text;align=left;verticalAlign=top;spacingLeft=4;spacingRight=4;overflow=hidden;rotatable=0;points=[[0,0.5],[1,0.5]];portConstraint=eastwest;" vertex="1" parent="0lHxmzMRRfuqBZsRVAmi-9">
          <mxGeometry y="26" width="390" height="26" as="geometry" />
        </mxCell>
        <mxCell id="0lHxmzMRRfuqBZsRVAmi-11" value="surname: string" style="text;align=left;verticalAlign=top;spacingLeft=4;spacingRight=4;overflow=hidden;rotatable=0;points=[[0,0.5],[1,0.5]];portConstraint=eastwest;rounded=0;shadow=0;html=0;" vertex="1" parent="0lHxmzMRRfuqBZsRVAmi-9">
          <mxGeometry y="52" width="390" height="26" as="geometry" />
        </mxCell>
        <mxCell id="0lHxmzMRRfuqBZsRVAmi-12" value="last_name: string" style="text;align=left;verticalAlign=top;spacingLeft=4;spacingRight=4;overflow=hidden;rotatable=0;points=[[0,0.5],[1,0.5]];portConstraint=eastwest;rounded=0;shadow=0;html=0;" vertex="1" parent="0lHxmzMRRfuqBZsRVAmi-9">
          <mxGeometry y="78" width="390" height="26" as="geometry" />
        </mxCell>
        <mxCell id="0lHxmzMRRfuqBZsRVAmi-13" value="email: string" style="text;align=left;verticalAlign=top;spacingLeft=4;spacingRight=4;overflow=hidden;rotatable=0;points=[[0,0.5],[1,0.5]];portConstraint=eastwest;rounded=0;shadow=0;html=0;" vertex="1" parent="0lHxmzMRRfuqBZsRVAmi-9">
          <mxGeometry y="104" width="390" height="26" as="geometry" />
        </mxCell>
        <mxCell id="0lHxmzMRRfuqBZsRVAmi-14" value="phone: string" style="text;align=left;verticalAlign=top;spacingLeft=4;spacingRight=4;overflow=hidden;rotatable=0;points=[[0,0.5],[1,0.5]];portConstraint=eastwest;rounded=0;shadow=0;html=0;" vertex="1" parent="0lHxmzMRRfuqBZsRVAmi-9">
          <mxGeometry y="130" width="390" height="26" as="geometry" />
        </mxCell>
        <mxCell id="0lHxmzMRRfuqBZsRVAmi-15" value="tg: string" style="text;align=left;verticalAlign=top;spacingLeft=4;spacingRight=4;overflow=hidden;rotatable=0;points=[[0,0.5],[1,0.5]];portConstraint=eastwest;rounded=0;shadow=0;html=0;" vertex="1" parent="0lHxmzMRRfuqBZsRVAmi-9">
          <mxGeometry y="156" width="390" height="26" as="geometry" />
        </mxCell>
        <mxCell id="0lHxmzMRRfuqBZsRVAmi-16" value="" style="line;html=1;strokeWidth=1;align=left;verticalAlign=middle;spacingTop=-1;spacingLeft=3;spacingRight=3;rotatable=0;labelPosition=right;points=[];portConstraint=eastwest;" vertex="1" parent="0lHxmzMRRfuqBZsRVAmi-9">
          <mxGeometry y="182" width="390" height="8" as="geometry" />
        </mxCell>
        <mxCell id="0lHxmzMRRfuqBZsRVAmi-17" value="+initialize(first_name:str, surname:str, last_name:str,phone:str, tg: str, git: str, email: str,id:str)" style="text;align=left;verticalAlign=top;spacingLeft=4;spacingRight=4;overflow=hidden;rotatable=0;points=[[0,0.5],[1,0.5]];portConstraint=eastwest;fontStyle=0" vertex="1" parent="0lHxmzMRRfuqBZsRVAmi-9">
          <mxGeometry y="190" width="390" height="26" as="geometry" />
        </mxCell>
        <mxCell id="0lHxmzMRRfuqBZsRVAmi-19" value="+set_contacts(phone: string, telegram: string, email: string)" style="text;align=left;verticalAlign=top;spacingLeft=4;spacingRight=4;overflow=hidden;rotatable=0;points=[[0,0.5],[1,0.5]];portConstraint=eastwest;" vertex="1" parent="0lHxmzMRRfuqBZsRVAmi-9">
          <mxGeometry y="216" width="390" height="26" as="geometry" />
        </mxCell>
        <mxCell id="0lHxmzMRRfuqBZsRVAmi-20" value="+change_fio(first_name:str,surname:str,last_name:str)&#xa;" style="text;align=left;verticalAlign=top;spacingLeft=4;spacingRight=4;overflow=hidden;rotatable=0;points=[[0,0.5],[1,0.5]];portConstraint=eastwest;" vertex="1" parent="0lHxmzMRRfuqBZsRVAmi-9">
          <mxGeometry y="242" width="390" height="26" as="geometry" />
        </mxCell>
        <mxCell id="0lHxmzMRRfuqBZsRVAmi-26" value="+initials&#xa;" style="text;align=left;verticalAlign=top;spacingLeft=4;spacingRight=4;overflow=hidden;rotatable=0;points=[[0,0.5],[1,0.5]];portConstraint=eastwest;" vertex="1" parent="0lHxmzMRRfuqBZsRVAmi-9">
          <mxGeometry y="268" width="390" height="26" as="geometry" />
        </mxCell>
        <mxCell id="0lHxmzMRRfuqBZsRVAmi-27" value="+get_info&#xa;" style="text;align=left;verticalAlign=top;spacingLeft=4;spacingRight=4;overflow=hidden;rotatable=0;points=[[0,0.5],[1,0.5]];portConstraint=eastwest;" vertex="1" parent="0lHxmzMRRfuqBZsRVAmi-9">
          <mxGeometry y="294" width="390" height="26" as="geometry" />
        </mxCell>
        <mxCell id="0lHxmzMRRfuqBZsRVAmi-28" value="+get_contact&#xa;" style="text;align=left;verticalAlign=top;spacingLeft=4;spacingRight=4;overflow=hidden;rotatable=0;points=[[0,0.5],[1,0.5]];portConstraint=eastwest;" vertex="1" parent="0lHxmzMRRfuqBZsRVAmi-9">
          <mxGeometry y="320" width="390" height="26" as="geometry" />
        </mxCell>
        <mxCell id="0lHxmzMRRfuqBZsRVAmi-29" value="+first_name" style="text;align=left;verticalAlign=top;spacingLeft=4;spacingRight=4;overflow=hidden;rotatable=0;points=[[0,0.5],[1,0.5]];portConstraint=eastwest;" vertex="1" parent="0lHxmzMRRfuqBZsRVAmi-9">
          <mxGeometry y="346" width="390" height="26" as="geometry" />
        </mxCell>
        <mxCell id="0lHxmzMRRfuqBZsRVAmi-30" value="+surname" style="text;align=left;verticalAlign=top;spacingLeft=4;spacingRight=4;overflow=hidden;rotatable=0;points=[[0,0.5],[1,0.5]];portConstraint=eastwest;" vertex="1" parent="0lHxmzMRRfuqBZsRVAmi-9">
          <mxGeometry y="372" width="390" height="26" as="geometry" />
        </mxCell>
        <mxCell id="0lHxmzMRRfuqBZsRVAmi-31" value="+last_name" style="text;align=left;verticalAlign=top;spacingLeft=4;spacingRight=4;overflow=hidden;rotatable=0;points=[[0,0.5],[1,0.5]];portConstraint=eastwest;" vertex="1" parent="0lHxmzMRRfuqBZsRVAmi-9">
          <mxGeometry y="398" width="390" height="26" as="geometry" />
        </mxCell>
        <mxCell id="0lHxmzMRRfuqBZsRVAmi-32" value="" style="endArrow=block;endSize=10;endFill=0;shadow=0;strokeWidth=1;rounded=0;curved=0;edgeStyle=elbowEdgeStyle;elbow=vertical;" edge="1" parent="1" source="0lHxmzMRRfuqBZsRVAmi-9" target="0lHxmzMRRfuqBZsRVAmi-1">
          <mxGeometry width="160" relative="1" as="geometry">
            <mxPoint x="290" y="103" as="sourcePoint" />
            <mxPoint x="290" y="103" as="targetPoint" />
          </mxGeometry>
        </mxCell>
        <mxCell id="0lHxmzMRRfuqBZsRVAmi-33" value="StudentShort" style="swimlane;fontStyle=0;align=center;verticalAlign=top;childLayout=stackLayout;horizontal=1;startSize=26;horizontalStack=0;resizeParent=1;resizeLast=0;collapsible=1;marginBottom=0;rounded=0;shadow=0;strokeWidth=1;" vertex="1" parent="1">
          <mxGeometry x="510" y="330" width="290" height="156" as="geometry">
            <mxRectangle x="340" y="380" width="170" height="26" as="alternateBounds" />
          </mxGeometry>
        </mxCell>
        <mxCell id="0lHxmzMRRfuqBZsRVAmi-34" value="FIO: string" style="text;align=left;verticalAlign=top;spacingLeft=4;spacingRight=4;overflow=hidden;rotatable=0;points=[[0,0.5],[1,0.5]];portConstraint=eastwest;" vertex="1" parent="0lHxmzMRRfuqBZsRVAmi-33">
          <mxGeometry y="26" width="290" height="26" as="geometry" />
        </mxCell>
        <mxCell id="0lHxmzMRRfuqBZsRVAmi-52" value="contact: string" style="text;align=left;verticalAlign=top;spacingLeft=4;spacingRight=4;overflow=hidden;rotatable=0;points=[[0,0.5],[1,0.5]];portConstraint=eastwest;" vertex="1" parent="0lHxmzMRRfuqBZsRVAmi-33">
          <mxGeometry y="52" width="290" height="26" as="geometry" />
        </mxCell>
        <mxCell id="0lHxmzMRRfuqBZsRVAmi-36" value="+initialize(student: Student, id: int, student_info: str)" style="text;align=left;verticalAlign=top;spacingLeft=4;spacingRight=4;overflow=hidden;rotatable=0;points=[[0,0.5],[1,0.5]];portConstraint=eastwest;" vertex="1" parent="0lHxmzMRRfuqBZsRVAmi-33">
          <mxGeometry y="78" width="290" height="26" as="geometry" />
        </mxCell>
        <mxCell id="0lHxmzMRRfuqBZsRVAmi-37" value="+short_setter(info: string)" style="text;align=left;verticalAlign=top;spacingLeft=4;spacingRight=4;overflow=hidden;rotatable=0;points=[[0,0.5],[1,0.5]];portConstraint=eastwest;" vertex="1" parent="0lHxmzMRRfuqBZsRVAmi-33">
          <mxGeometry y="104" width="290" height="26" as="geometry" />
        </mxCell>
        <mxCell id="0lHxmzMRRfuqBZsRVAmi-38" value="" style="endArrow=none;html=1;rounded=0;exitX=-0.007;exitY=0.071;exitDx=0;exitDy=0;exitPerimeter=0;entryX=1.003;entryY=0.103;entryDx=0;entryDy=0;entryPerimeter=0;" edge="1" parent="0lHxmzMRRfuqBZsRVAmi-33" source="0lHxmzMRRfuqBZsRVAmi-36" target="0lHxmzMRRfuqBZsRVAmi-36">
          <mxGeometry width="50" height="50" relative="1" as="geometry">
            <mxPoint x="30" y="90" as="sourcePoint" />
            <mxPoint x="80" y="40" as="targetPoint" />
          </mxGeometry>
        </mxCell>
        <mxCell id="0lHxmzMRRfuqBZsRVAmi-39" value="" style="endArrow=block;endSize=10;endFill=0;shadow=0;strokeWidth=1;rounded=0;curved=0;edgeStyle=elbowEdgeStyle;elbow=vertical;" edge="1" parent="1" source="0lHxmzMRRfuqBZsRVAmi-33" target="0lHxmzMRRfuqBZsRVAmi-1">
          <mxGeometry width="160" relative="1" as="geometry">
            <mxPoint x="300" y="273" as="sourcePoint" />
            <mxPoint x="400" y="171" as="targetPoint" />
            <Array as="points">
              <mxPoint x="510" y="240" />
            </Array>
          </mxGeometry>
        </mxCell>
        <mxCell id="0lHxmzMRRfuqBZsRVAmi-40" value="StudentValidator&#xa;" style="swimlane;fontStyle=2;align=center;verticalAlign=top;childLayout=stackLayout;horizontal=1;startSize=26;horizontalStack=0;resizeParent=1;resizeLast=0;collapsible=1;marginBottom=0;rounded=0;shadow=0;strokeWidth=1;" vertex="1" parent="1">
          <mxGeometry x="570" y="80" width="170" height="216" as="geometry">
            <mxRectangle x="230" y="140" width="160" height="26" as="alternateBounds" />
          </mxGeometry>
        </mxCell>
        <mxCell id="0lHxmzMRRfuqBZsRVAmi-41" value="NAME_REGEX:Regex" style="text;align=left;verticalAlign=top;spacingLeft=4;spacingRight=4;overflow=hidden;rotatable=0;points=[[0,0.5],[1,0.5]];portConstraint=eastwest;" vertex="1" parent="0lHxmzMRRfuqBZsRVAmi-40">
          <mxGeometry y="26" width="170" height="26" as="geometry" />
        </mxCell>
        <mxCell id="0lHxmzMRRfuqBZsRVAmi-46" value="EMAIL_REGEX:Regex" style="text;align=left;verticalAlign=top;spacingLeft=4;spacingRight=4;overflow=hidden;rotatable=0;points=[[0,0.5],[1,0.5]];portConstraint=eastwest;" vertex="1" parent="0lHxmzMRRfuqBZsRVAmi-40">
          <mxGeometry y="52" width="170" height="26" as="geometry" />
        </mxCell>
        <mxCell id="0lHxmzMRRfuqBZsRVAmi-47" value="PHONE_REGEX:Regex" style="text;align=left;verticalAlign=top;spacingLeft=4;spacingRight=4;overflow=hidden;rotatable=0;points=[[0,0.5],[1,0.5]];portConstraint=eastwest;" vertex="1" parent="0lHxmzMRRfuqBZsRVAmi-40">
          <mxGeometry y="78" width="170" height="26" as="geometry" />
        </mxCell>
        <mxCell id="0lHxmzMRRfuqBZsRVAmi-48" value="TG_REGEX:Regex" style="text;align=left;verticalAlign=top;spacingLeft=4;spacingRight=4;overflow=hidden;rotatable=0;points=[[0,0.5],[1,0.5]];portConstraint=eastwest;" vertex="1" parent="0lHxmzMRRfuqBZsRVAmi-40">
          <mxGeometry y="104" width="170" height="26" as="geometry" />
        </mxCell>
        <mxCell id="0lHxmzMRRfuqBZsRVAmi-53" value="ANY_REGEX:Regex" style="text;align=left;verticalAlign=top;spacingLeft=4;spacingRight=4;overflow=hidden;rotatable=0;points=[[0,0.5],[1,0.5]];portConstraint=eastwest;" vertex="1" parent="0lHxmzMRRfuqBZsRVAmi-40">
          <mxGeometry y="130" width="170" height="26" as="geometry" />
        </mxCell>
        <mxCell id="0lHxmzMRRfuqBZsRVAmi-49" value="GIT_REGEX:Regex" style="text;align=left;verticalAlign=top;spacingLeft=4;spacingRight=4;overflow=hidden;rotatable=0;points=[[0,0.5],[1,0.5]];portConstraint=eastwest;" vertex="1" parent="0lHxmzMRRfuqBZsRVAmi-40">
          <mxGeometry y="156" width="170" height="26" as="geometry" />
        </mxCell>
        <mxCell id="0lHxmzMRRfuqBZsRVAmi-42" value="" style="line;html=1;strokeWidth=1;align=left;verticalAlign=middle;spacingTop=-1;spacingLeft=3;spacingRight=3;rotatable=0;labelPosition=right;points=[];portConstraint=eastwest;" vertex="1" parent="0lHxmzMRRfuqBZsRVAmi-40">
          <mxGeometry y="182" width="170" height="8" as="geometry" />
        </mxCell>
        <mxCell id="0lHxmzMRRfuqBZsRVAmi-44" value="+valid?(value:any,reg:Regex)" style="text;align=left;verticalAlign=top;spacingLeft=4;spacingRight=4;overflow=hidden;rotatable=0;points=[[0,0.5],[1,0.5]];portConstraint=eastwest;" vertex="1" parent="0lHxmzMRRfuqBZsRVAmi-40">
          <mxGeometry y="190" width="170" height="26" as="geometry" />
        </mxCell>
        <mxCell id="0lHxmzMRRfuqBZsRVAmi-51" value="" style="endArrow=block;endSize=10;endFill=0;shadow=0;strokeWidth=1;rounded=0;curved=0;edgeStyle=elbowEdgeStyle;elbow=vertical;entryX=0.412;entryY=-0.001;entryDx=0;entryDy=0;entryPerimeter=0;" edge="1" parent="1" source="0lHxmzMRRfuqBZsRVAmi-1" target="0lHxmzMRRfuqBZsRVAmi-40">
          <mxGeometry width="160" relative="1" as="geometry">
            <mxPoint x="630" y="160" as="sourcePoint" />
            <mxPoint x="720" y="70" as="targetPoint" />
            <Array as="points">
              <mxPoint x="720" y="50" />
            </Array>
          </mxGeometry>
        </mxCell>
      </root>
    </mxGraphModel>
  </diagram>
</mxfile>
